<?xml version="1.0" encoding="utf-8"?>
<!-- Generator: Adobe Illustrator 25.1.0, SVG Export Plug-In . SVG Version: 6.00 Build 0)  -->
<svg version="1.1" id="Layer_1" xmlns="http://www.w3.org/2000/svg" xmlns:xlink="http://www.w3.org/1999/xlink" x="0px" y="0px"
	 viewBox="0 0 48.4 33.5" style="enable-background:new 0 0 48.4 33.5;" xml:space="preserve">
<style type="text/css">
	.st0{fill:none;stroke:#FFFFFF;stroke-width:2.2;stroke-linecap:round;stroke-miterlimit:10;}
	.st1{fill:none;stroke:#FFFFFF;stroke-width:2.2;stroke-miterlimit:10;}
	.st2{fill:#FFFFFF;}
	.st3{fill:none;stroke:#F2920C;stroke-width:2.2;stroke-linecap:round;stroke-miterlimit:10;}
	.st4{fill:none;stroke:#F2920C;stroke-width:2.2;stroke-miterlimit:10;}
	.st5{fill:#F2920C;}
	.st6{fill:none;stroke:#333333;stroke-width:2.2;stroke-linecap:round;stroke-miterlimit:10;}
	.st7{fill:none;stroke:#333333;stroke-width:2.2;stroke-miterlimit:10;}
	.st8{fill:#333333;}
</style>
<g>
	<path class="st4" d="M24.5,29.1c0,0,4.8-2.3,9.3-2.6c4.4-0.3,8.4,0.9,8.4,0.9V4c0,0-2.8-2.8-8.8-2.1c-5.7,0.6-8.8,4-8.8,4
		s-3.1-3.4-8.8-4C9.6,1.2,6.8,4,6.8,4v23.4c0,0,4-1.2,8.4-0.9C19.6,26.8,24.5,29.1,24.5,29.1z"/>
	<line class="st4" x1="24.5" y1="5.4" x2="24.5" y2="28.7"/>
</g>
<polyline class="st3" points="45.1,7 46.6,7 46.6,31.6 1.9,31.6 1.9,7 3.6,7 "/>
</svg>
