<?xml version="1.0" encoding="utf-8"?>
<!-- Generator: Adobe Illustrator 25.1.0, SVG Export Plug-In . SVG Version: 6.00 Build 0)  -->
<svg version="1.1" id="Layer_1" xmlns="http://www.w3.org/2000/svg" xmlns:xlink="http://www.w3.org/1999/xlink" x="0px" y="0px"
	 viewBox="0 0 1920 1080" style="enable-background:new 0 0 1920 1080;" xml:space="preserve">
<style type="text/css">
	.st0{fill:#F2F2F2;}
	.st1{fill:none;stroke:#F2920C;stroke-width:2.2511;stroke-miterlimit:10;}
	.st2{fill:#FFFFFF;}
	.st3{fill:#F2920C;}
	.st4{stroke:#FFFFFF;stroke-width:1.1255;stroke-miterlimit:10;}
	.st5{fill:none;stroke:#FF00FF;stroke-width:1.1255;stroke-miterlimit:10;}
	.st6{fill:none;stroke:#F2920C;stroke-width:1.1255;stroke-miterlimit:10;}
	.st7{opacity:0.65;}
	.st8{fill:none;stroke:#F2920C;stroke-width:3.7266;stroke-miterlimit:10;}
	.st9{font-family:'Avenir-Book';}
	.st10{font-size:21px;}
	.st11{font-family:'AvenirNext-Bold';}
</style>
<rect y="1.01" class="st7" width="1920" height="1078.99"/>
<g>
	<line class="st8" x1="325.58" y1="823.91" x2="640.07" y2="823.91"/>
	<text transform="matrix(1 0 0 1 335.3158 856.4395)"><tspan x="0" y="0" class="st2 st9 st10">Klik eller zoom ind på kortet, </tspan><tspan x="0" y="25.2" class="st2 st9 st10">for at udvælge eller afgrænse </tspan><tspan x="0" y="50.4" class="st2 st9 st10">din søgning. </tspan></text>
	<text transform="matrix(1 0 0 1 335.3158 809.8565)" class="st2 st11 st10">Interaktivt kort </text>
</g>
<polyline class="st8" points="473.15,625.24 164.2,625.24 62.28,421.72 "/>
<text transform="matrix(1 0 0 1 173.9402 657.6081)"><tspan x="0" y="0" class="st2 st9 st10">Lorem ipsum dolor sit amet, </tspan><tspan x="0" y="25.2" class="st2 st9 st10">consectetur adipiscing elit. </tspan><tspan x="0" y="50.4" class="st2 st9 st10">Vestibulum rhoncus commodo. </tspan></text>
<text transform="matrix(1 0 0 1 173.9402 611.0251)" class="st2 st11 st10">MÅLT VED </text>
<polyline class="st8" points="473.15,409.46 164.2,409.46 127.38,335.63 "/>
<text transform="matrix(1 0 0 1 173.9402 441.9886)"><tspan x="0" y="0" class="st2 st9 st10">Lorem ipsum dolor sit amet, </tspan><tspan x="0" y="25.2" class="st2 st9 st10">consectetur adipiscing elit. </tspan><tspan x="0" y="50.4" class="st2 st9 st10">Vestibulum rhoncus commodo.</tspan></text>
<text transform="matrix(1 0 0 1 173.9402 395.4056)" class="st2 st11 st10">INDKOMSTMÅL </text>
<polyline class="st8" points="1343.54,626.05 1652.48,626.05 1760.55,410.27 "/>
<text transform="matrix(1 0 0 1 1367.8723 658.4188)"><tspan x="0" y="0" class="st2 st9 st10">Lorem ipsum dolor sit amet, </tspan><tspan x="0" y="25.2" class="st2 st9 st10">consectetur adipiscing elit. </tspan><tspan x="0" y="50.4" class="st2 st9 st10">Vestibulum rhoncus commodo. </tspan></text>
<text transform="matrix(1 0 0 1 1367.8723 611.8358)" class="st2 st11 st10">NUlstil tidsserie </text>
<polyline class="st8" points="1343.54,410.27 1652.48,410.27 1740.9,233.02 "/>
<text transform="matrix(1 0 0 1 1367.8723 442.7994)"><tspan x="0" y="0" class="st2 st9 st10">Lorem ipsum dolor sit amet, </tspan><tspan x="0" y="25.2" class="st2 st9 st10">consectetur adipiscing elit. </tspan><tspan x="0" y="50.4" class="st2 st9 st10">Vestibulum rhoncus commodo. </tspan></text>
<text transform="matrix(1 0 0 1 1367.8723 396.2164)" class="st2 st11 st10">Dokumentation </text>
<text transform="matrix(1 0 0 1 697.9611 440.187)"><tspan x="0" y="0" class="st2 st9 st10">Lorem ipsum dolor sit amet, </tspan><tspan x="0" y="25.2" class="st2 st9 st10">consectetur adipiscing elit. </tspan><tspan x="0" y="50.4" class="st2 st9 st10">Vestibulum rhoncus commodo. </tspan></text>
<text transform="matrix(1 0 0 1 697.9611 393.604)" class="st2 st11 st10">Områder </text>
<g>
	<line class="st8" x1="1263.22" y1="823.91" x2="1619.42" y2="823.91"/>
	<text transform="matrix(1 0 0 1 1263.6951 856.4397)"><tspan x="0" y="0" class="st2 st9 st10">Zoom eller træk musen over kortet </tspan><tspan x="0" y="25.2" class="st2 st9 st10">kortet, for at fokusere eller </tspan><tspan x="0" y="50.4" class="st2 st9 st10">afgrænse din søgning. </tspan></text>
	<text transform="matrix(1 0 0 1 1263.6951 809.8567)" class="st2 st11 st10">Interaktivt GRAF </text>
</g>
<polyline class="st8" points="997.17,407.65 688.22,407.65 597.8,227.76 "/>
<polyline class="st8" points="997.17,629.27 688.22,629.27 524.25,300.56 "/>
<text transform="matrix(1 0 0 1 697.9611 661.8058)"><tspan x="0" y="0" class="st2 st9 st10">Lorem ipsum dolor sit amet, </tspan><tspan x="0" y="25.2" class="st2 st9 st10">consectetur adipiscing elit. </tspan><tspan x="0" y="50.4" class="st2 st9 st10">Vestibulum rhoncus commodo. </tspan></text>
<text transform="matrix(1 0 0 1 697.9611 615.2228)" class="st2 st11 st10">søgekriterier </text>
</svg>
