<?xml version="1.0" encoding="utf-8"?>
<!-- Generator: Adobe Illustrator 25.1.0, SVG Export Plug-In . SVG Version: 6.00 Build 0)  -->
<svg version="1.1" id="Layer_1" xmlns="http://www.w3.org/2000/svg" xmlns:xlink="http://www.w3.org/1999/xlink" x="0px" y="0px"
	 viewBox="0 0 45.6 34.2" style="enable-background:new 0 0 45.6 34.2;" xml:space="preserve">
<style type="text/css">
	.st0{fill:none;stroke:#FFFFFF;stroke-width:2.2;stroke-linecap:round;stroke-miterlimit:10;}
	.st1{fill:none;stroke:#FFFFFF;stroke-width:2.2;stroke-miterlimit:10;}
	.st2{fill:#FFFFFF;}
	.st3{fill:none;stroke:#F2920C;stroke-width:2.2;stroke-linecap:round;stroke-miterlimit:10;}
	.st4{fill:none;stroke:#F2920C;stroke-width:2.2;stroke-miterlimit:10;}
	.st5{fill:#F2920C;}
	.st6{fill:none;stroke:#333333;stroke-width:2.2;stroke-linecap:round;stroke-miterlimit:10;}
	.st7{fill:none;stroke:#333333;stroke-width:2.2;stroke-miterlimit:10;}
	.st8{fill:#333333;}
</style>
<path class="st3" d="M7.7,12.8C7.4,2,16,0.2,20.8,2.5C24,4.1,25.4,7,25.6,8h0.2c0.3-1,1.7-4,4.9-5.5C35.5,0.2,44.1,2,43.8,12.8
	c-0.1,4.1-2.5,9-7.7,13.3c-5.7,4.6-10.3,6.5-10.3,6.5l0,0c0,0-4.6-1.9-10.3-6.5c-1.5-1.2-2.7-2.5-3.8-3.7"/>
<polyline class="st3" points="2.1,17.5 13.4,17.5 16.9,10.3 21.2,22.3 23.9,14.3 25.9,17.6 36.5,17.6 "/>
</svg>
