<?xml version="1.0" encoding="utf-8"?>
<!-- Generator: Adobe Illustrator 25.3.1, SVG Export Plug-In . SVG Version: 6.00 Build 0)  -->
<svg version="1.1" id="Layer_1" xmlns="http://www.w3.org/2000/svg" xmlns:xlink="http://www.w3.org/1999/xlink" x="0px" y="0px"
	 viewBox="0 0 600 735" style="enable-background:new 0 0 600 735;" xml:space="preserve">
<style type="text/css">
	.st0{fill:#231F20;}
	.st1{fill:#FFFFFF;}
</style>
<g>
	<path class="st1" d="M300.6,595.7c-79.1,0-153.4-30.8-209.3-86.7S4.6,378.8,4.6,299.7S35.4,146.3,91.3,90.4S221.5,3.7,300.6,3.7
		S454,34.5,509.9,90.4c55.9,55.9,86.7,130.2,86.7,209.3S565.8,453.1,509.9,509S379.7,595.7,300.6,595.7z M300.6,12.7
		c-76.7,0-148.7,29.9-202.9,84.1S13.6,223,13.6,299.7c0,76.7,29.9,148.7,84.1,202.9s126.3,84.1,202.9,84.1s148.7-29.9,202.9-84.1
		s84.1-126.3,84.1-202.9c0-76.7-29.9-148.7-84.1-202.9C449.3,42.6,377.3,12.7,300.6,12.7z"/>
</g>
<g>
	<g>
		<path class="st1" d="M300.2,485.8l-1.7-0.7c-0.5-0.2-51.4-21.8-113.1-72c-15.9-12.9-30-26.9-41.9-41.5l7-5.7
			c11.5,14.1,25.1,27.6,40.5,40.2c47,38.1,90.9,61.9,109.2,69.9c18.5-8,62.7-31.8,109.7-69.9c72.7-59,82.1-118.7,82.8-141.6
			c1.8-60.7-22.5-89.5-43.2-102.9c-30.5-19.8-68.6-17-92.9-5.3c-30.9,14.8-46.7,43.9-50.7,57.2l-1,3.2H296l-1-3.2
			c-4-13.3-19.8-42.3-50.7-57.2c-24.3-11.6-62.4-14.5-92.9,5.3c-20.7,13.4-45,42.2-43.2,102.9l-9,0.3c-1.9-64.9,24.7-96,47.3-110.7
			c15-9.7,32.9-15.2,51.9-15.9c17.4-0.6,35.1,2.9,49.8,10c31.2,14.9,46.3,41.1,52.2,54.4c6-13.3,21.1-39.5,52.2-54.4
			c14.8-7.1,32.5-10.6,49.8-10c19,0.7,36.9,6.2,51.9,15.9c22.6,14.7,49.2,45.9,47.3,110.7c-1.5,51.1-32.9,105.2-86.1,148.4
			c-61.8,50.1-113.2,71.8-113.7,72L300.2,485.8z"/>
	</g>
	<g>
		<polygon class="st1" points="244.1,389.3 199.1,249.6 165.3,324.1 44.6,324.1 44.6,315.1 159.5,315.1 200.5,224.7 244,359.6 
			271.6,271.9 296.1,316.5 362.7,316.5 362.7,325.5 290.8,325.5 273.8,294.7 		"/>
	</g>
</g>
<g>
	<path class="st1" d="M125.9,646.5c-1.7-2.4-3.9-4.3-6.6-5.7c-2.7-1.5-5.9-2.2-9.7-2.2c-1.9,0-3.9,0.3-5.9,0.9
		c-2,0.6-3.8,1.5-5.5,2.7c-1.6,1.2-3,2.8-4,4.6c-1,1.9-1.5,4.1-1.5,6.6c0,2.5,0.5,4.6,1.4,6.2c1,1.6,2.2,3,3.8,4.2
		c1.6,1.2,3.4,2.1,5.5,2.8c2,0.7,4.2,1.5,6.4,2.2c2.7,0.9,5.5,1.9,8.3,2.9c2.8,1,5.3,2.4,7.5,4.1c2.2,1.7,4,3.8,5.5,6.4
		s2.1,5.8,2.1,9.8c0,3.9-0.8,7.3-2.3,10.2c-1.5,2.9-3.5,5.2-5.9,7.1c-2.4,1.9-5.1,3.2-8.2,4.1c-3.1,0.9-6.2,1.3-9.3,1.3
		c-2.4,0-4.8-0.2-7.1-0.7c-2.4-0.5-4.7-1.2-6.8-2.2c-2.2-1-4.2-2.2-6-3.7c-1.9-1.5-3.5-3.2-4.9-5.1l6.9-5.1c1.7,2.8,4.1,5.2,7.2,7.1
		s6.7,2.8,10.9,2.8c2,0,4.1-0.3,6.1-0.9c2.1-0.6,4-1.6,5.6-2.9c1.7-1.3,3-2.9,4.1-4.8c1.1-1.9,1.6-4.1,1.6-6.6c0-2.8-0.5-5-1.6-6.9
		c-1.1-1.8-2.5-3.3-4.3-4.6c-1.8-1.2-3.8-2.2-6.1-3.1c-2.3-0.8-4.7-1.6-7.3-2.5c-2.6-0.8-5.2-1.7-7.7-2.8c-2.5-1-4.8-2.4-6.8-4.1
		c-2-1.7-3.6-3.7-4.9-6.2c-1.2-2.5-1.8-5.5-1.8-9c0-3.8,0.8-7.1,2.3-9.8c1.5-2.8,3.5-5,6-6.8c2.5-1.8,5.2-3.1,8.1-3.9
		c3-0.8,5.9-1.2,8.8-1.2c5.4,0,9.9,0.9,13.7,2.8s6.7,4.1,8.6,6.8L125.9,646.5z"/>
	<path class="st1" d="M185.4,712.8c-0.2-1.4-0.3-3-0.3-4.7c-0.1-1.7-0.1-3.1-0.1-4.2h-0.2c-1.5,3.1-3.9,5.5-7.3,7.4
		s-6.9,2.8-10.6,2.8c-6.6,0-11.6-2-14.9-5.9c-3.3-3.9-5-9.2-5-15.6v-32h7.6v28.9c0,2.8,0.2,5.2,0.7,7.5c0.4,2.2,1.2,4.1,2.3,5.7
		c1.1,1.6,2.5,2.8,4.4,3.7c1.8,0.9,4.1,1.3,6.9,1.3c2,0,4-0.4,5.9-1.2c1.9-0.8,3.6-2.1,5.1-3.7c1.5-1.7,2.7-3.8,3.6-6.4
		c0.9-2.6,1.3-5.6,1.3-9.1v-26.8h7.6v40.7c0,1.4,0,3.2,0.1,5.5c0.1,2.2,0.2,4.2,0.3,6H185.4z"/>
	<path class="st1" d="M216.3,660.6c0.1,1.4,0.3,3,0.3,4.7c0.1,1.7,0.1,3.1,0.1,4.2h0.2c1.5-3.1,3.9-5.5,7.3-7.4s6.9-2.8,10.6-2.8
		c6.6,0,11.6,2,14.9,5.9c3.3,3.9,5,9.2,5,15.6v32h-7.6v-28.9c0-2.8-0.2-5.2-0.7-7.5s-1.2-4.1-2.3-5.7c-1.1-1.6-2.5-2.8-4.4-3.7
		c-1.8-0.9-4.1-1.3-6.9-1.3c-2,0-4,0.4-5.9,1.2c-1.9,0.8-3.6,2.1-5.1,3.7c-1.5,1.7-2.7,3.8-3.6,6.4c-0.9,2.6-1.3,5.6-1.3,9.1v26.8
		h-7.6v-40.7c0-1.4,0-3.2-0.1-5.5c-0.1-2.2-0.2-4.2-0.3-6H216.3z"/>
	<path class="st1" d="M314.9,704c-2.2,3.3-5.1,5.9-8.7,7.6c-3.6,1.7-7.3,2.6-11,2.6c-4.1,0-7.8-0.7-11.1-2.1
		c-3.3-1.4-6.1-3.3-8.5-5.8c-2.3-2.5-4.2-5.4-5.5-8.7c-1.3-3.3-2-7-2-10.8c0-3.9,0.7-7.5,2-10.8c1.3-3.3,3.1-6.3,5.5-8.7
		c2.3-2.5,5.2-4.4,8.5-5.8c3.3-1.4,7-2.1,11.1-2.1c3.8,0,7.5,0.9,11,2.6c3.6,1.8,6.5,4.3,8.7,7.8h0.2v-41.2h7.6v84.4h-7.6V704H314.9
		z M276.2,686.7c0,2.9,0.4,5.6,1.3,8.2c0.9,2.6,2.2,4.8,3.9,6.7c1.7,1.9,3.7,3.4,6.2,4.5c2.5,1.1,5.2,1.6,8.4,1.6
		c2.9,0,5.6-0.5,8-1.6c2.5-1.1,4.6-2.5,6.4-4.4c1.8-1.9,3.2-4.1,4.2-6.6c1-2.6,1.5-5.3,1.5-8.3c0-3-0.5-5.7-1.5-8.3
		c-1-2.6-2.4-4.8-4.2-6.7s-3.9-3.4-6.4-4.5c-2.5-1.1-5.1-1.6-8-1.6c-3.1,0-5.9,0.6-8.4,1.7c-2.5,1.1-4.5,2.6-6.2,4.5
		c-1.7,1.9-3,4.1-3.9,6.7C276.6,681.1,276.2,683.8,276.2,686.7z"/>
	<path class="st1" d="M347.8,669.2c1.4-3.1,3.8-5.5,7-7.3c3.3-1.8,6.8-2.7,10.5-2.7c6.6,0,11.6,2,14.9,5.9c3.3,3.9,5,9.2,5,15.6v32
		h-7.6v-28.9c0-2.8-0.2-5.2-0.7-7.5s-1.2-4.1-2.3-5.7c-1.1-1.6-2.5-2.8-4.4-3.7c-1.8-0.9-4.1-1.3-6.9-1.3c-2,0-4,0.4-5.9,1.2
		c-1.9,0.8-3.6,2.1-5.1,3.7c-1.5,1.7-2.7,3.8-3.6,6.4c-0.9,2.6-1.3,5.6-1.3,9.1v26.8H340v-84.4h7.6v40.7H347.8z"/>
	<path class="st1" d="M449.9,685.1c0,0.5,0,1.1,0,1.7c0,0.6,0,1.2-0.1,1.9h-43.3c0.1,2.6,0.6,5.1,1.6,7.4c1,2.3,2.3,4.3,4,6
		c1.7,1.7,3.7,3.1,6,4.1c2.3,1,4.8,1.5,7.5,1.5c3.9,0,7.3-0.9,10.2-2.7c2.9-1.8,5-3.9,6.5-6.3l5.7,4.5c-3.1,3.9-6.6,6.8-10.3,8.5
		c-3.8,1.7-7.8,2.6-12.1,2.6c-3.9,0-7.5-0.7-10.8-2.1c-3.3-1.4-6.2-3.3-8.5-5.7c-2.4-2.5-4.3-5.4-5.6-8.7c-1.4-3.3-2.1-7-2.1-10.9
		c0-3.9,0.7-7.6,2-10.9s3.2-6.2,5.6-8.7c2.4-2.5,5.2-4.4,8.4-5.7c3.2-1.4,6.7-2.1,10.4-2.1c4.1,0,7.7,0.7,10.8,2.1
		c3.1,1.4,5.7,3.2,7.8,5.6c2.1,2.3,3.7,5.1,4.7,8.2C449.4,678.2,449.9,681.6,449.9,685.1z M442.2,682.7c-0.2-4.9-1.8-9-4.7-12.2
		c-2.9-3.2-7.1-4.9-12.6-4.9c-2.5,0-4.9,0.5-7,1.4c-2.2,0.9-4.1,2.2-5.7,3.8c-1.6,1.6-2.9,3.4-3.9,5.5c-1,2-1.5,4.2-1.7,6.4H442.2z"
		/>
	<path class="st1" d="M507.5,704c-2.2,3.3-5.1,5.9-8.7,7.6c-3.6,1.7-7.3,2.6-11,2.6c-4.1,0-7.8-0.7-11.1-2.1
		c-3.3-1.4-6.1-3.3-8.5-5.8c-2.3-2.5-4.2-5.4-5.5-8.7c-1.3-3.3-2-7-2-10.8c0-3.9,0.7-7.5,2-10.8c1.3-3.3,3.1-6.3,5.5-8.7
		c2.3-2.5,5.2-4.4,8.5-5.8c3.3-1.4,7-2.1,11.1-2.1c3.8,0,7.5,0.9,11,2.6c3.6,1.8,6.5,4.3,8.7,7.8h0.2v-41.2h7.6v84.4h-7.6V704H507.5
		z M468.7,686.7c0,2.9,0.4,5.6,1.3,8.2c0.9,2.6,2.2,4.8,3.9,6.7c1.7,1.9,3.7,3.4,6.2,4.5c2.5,1.1,5.2,1.6,8.4,1.6
		c2.9,0,5.6-0.5,8-1.6c2.5-1.1,4.6-2.5,6.4-4.4c1.8-1.9,3.2-4.1,4.2-6.6c1-2.6,1.5-5.3,1.5-8.3c0-3-0.5-5.7-1.5-8.3
		c-1-2.6-2.4-4.8-4.2-6.7s-3.9-3.4-6.4-4.5c-2.5-1.1-5.1-1.6-8-1.6c-3.1,0-5.9,0.6-8.4,1.7c-2.5,1.1-4.5,2.6-6.2,4.5
		c-1.7,1.9-3,4.1-3.9,6.7C469.2,681.1,468.7,683.8,468.7,686.7z"/>
</g>
</svg>
