<?xml version="1.0" encoding="utf-8"?>
<!-- Generator: Adobe Illustrator 25.3.1, SVG Export Plug-In . SVG Version: 6.00 Build 0)  -->
<svg version="1.1" id="Layer_1" xmlns="http://www.w3.org/2000/svg" xmlns:xlink="http://www.w3.org/1999/xlink" x="0px" y="0px"
	 viewBox="0 0 600 735" style="enable-background:new 0 0 600 735;" xml:space="preserve">
<style type="text/css">
	.st0{fill:#231F20;}
	.st1{fill:#FFFFFF;}
</style>
<g>
	<g>
		<path class="st1" d="M301.9,416.4l-1.9-0.8c-0.5-0.2-48.8-21.9-92.5-24.9c-43.4-3-82.9,8.3-83.3,8.4l-5.8,1.7l0-232.1l1.4-1.3
			c1.2-1.1,30.4-28,93-21.7c49.2,5,79.4,28.3,89,36.9c9.6-8.5,39.8-31.9,89-36.9c62.6-6.3,91.8,20.5,93,21.7l1.4,1.3v232.1l-5.8-1.7
			c-0.4-0.1-39.9-11.4-83.3-8.4c-43.7,3-92,24.7-92.5,24.9L301.9,416.4z M192.3,381.1c5.2,0,10.5,0.2,15.9,0.5
			c40.9,2.8,84.2,20.8,93.7,24.9c9.5-4.1,52.8-22.1,93.7-24.9c35.6-2.4,67.9,4.1,80.7,7.2V172.6c-6.3-4.9-33.6-23.2-84.5-18.1
			c-55.9,5.7-86.3,36.9-86.6,37.2l-3.3,3.4l-3.3-3.4c-0.3-0.3-30.9-31.6-86.6-37.2c-50.9-5.1-78.2,13.2-84.5,18.1v216.3
			C138.4,386.2,163.3,381.1,192.3,381.1z"/>
	</g>
	<g>
		<path class="st1" d="M301.9,411c-2.5,0-4.5-2-4.5-4.5V188.6c0-2.5,2-4.5,4.5-4.5s4.5,2,4.5,4.5v217.9
			C306.4,409,304.4,411,301.9,411z"/>
	</g>
</g>
<g>
	<path class="st1" d="M518.4,438.3H81.7V193.6h20.2c2.5,0,4.5,2,4.5,4.5s-2,4.5-4.5,4.5H90.7v226.7h418.7V202.5h-8.5
		c-2.5,0-4.5-2-4.5-4.5s2-4.5,4.5-4.5h17.5V438.3z"/>
</g>
<g>
	<path class="st1" d="M300.6,595.4c-79.1,0-153.4-30.8-209.3-86.7S4.6,378.5,4.6,299.4S35.4,146,91.3,90.1S221.5,3.4,300.6,3.4
		S454,34.2,509.9,90.1s86.7,130.2,86.7,209.3s-30.8,153.4-86.7,209.3S379.7,595.4,300.6,595.4z M300.6,12.4
		c-76.7,0-148.7,29.9-202.9,84.1S13.6,222.8,13.6,299.4c0,76.7,29.9,148.7,84.1,202.9s126.3,84.1,202.9,84.1s148.7-29.9,202.9-84.1
		s84.1-126.3,84.1-202.9c0-76.7-29.9-148.7-84.1-202.9S377.3,12.4,300.6,12.4z"/>
</g>
<g>
	<path class="st1" d="M42,714.5c-6,0-10.8-1-14.6-3.1c-3.8-2-6.8-4.6-9-7.8c-2.2-3.1-3.8-6.5-4.6-10.2c-0.9-3.7-1.3-7.2-1.3-10.4
		v-49.6h8v48.7c0,3.2,0.4,6.3,1.1,9.3c0.7,3,2,5.7,3.6,8c1.7,2.3,3.9,4.2,6.6,5.7c2.8,1.5,6.1,2.2,10.2,2.2c4,0,7.4-0.7,10.2-2.2
		c2.8-1.5,5-3.3,6.6-5.7c1.7-2.3,2.9-5,3.6-8c0.7-3,1.1-6.1,1.1-9.3v-48.7h8v49.6c0,3.3-0.4,6.8-1.3,10.4c-0.9,3.7-2.4,7.1-4.6,10.2
		c-2.2,3.1-5.3,5.7-9.1,7.8C52.8,713.5,47.9,714.5,42,714.5z"/>
	<path class="st1" d="M132.2,703.7c-2.2,3.3-5.1,5.9-8.7,7.6c-3.6,1.7-7.3,2.6-11,2.6c-4.1,0-7.8-0.7-11.1-2.1
		c-3.3-1.4-6.1-3.3-8.5-5.8c-2.3-2.5-4.2-5.4-5.5-8.7c-1.3-3.3-2-7-2-10.8c0-3.9,0.7-7.5,2-10.8c1.3-3.3,3.1-6.3,5.5-8.7
		c2.3-2.5,5.2-4.4,8.5-5.8c3.3-1.4,7-2.1,11.1-2.1c3.8,0,7.5,0.9,11,2.6c3.6,1.8,6.5,4.3,8.7,7.8h0.2v-41.2h7.6v84.4h-7.6v-8.8
		H132.2z M93.5,686.4c0,2.9,0.4,5.6,1.3,8.2c0.9,2.6,2.2,4.8,3.9,6.7c1.7,1.9,3.7,3.4,6.2,4.5c2.5,1.1,5.2,1.6,8.4,1.6
		c2.9,0,5.6-0.5,8-1.6c2.5-1.1,4.6-2.5,6.4-4.4c1.8-1.9,3.2-4.1,4.2-6.6c1-2.6,1.5-5.3,1.5-8.3c0-3-0.5-5.7-1.5-8.3
		c-1-2.6-2.4-4.8-4.2-6.7c-1.8-1.9-3.9-3.4-6.4-4.5c-2.5-1.1-5.1-1.6-8-1.6c-3.1,0-5.9,0.6-8.4,1.7c-2.5,1.1-4.5,2.6-6.2,4.5
		c-1.7,1.9-3,4.1-3.9,6.7C93.9,680.8,93.5,683.5,93.5,686.4z"/>
	<path class="st1" d="M200.9,703.7c-2.2,3.3-5.1,5.9-8.7,7.6c-3.6,1.7-7.3,2.6-11,2.6c-4.1,0-7.8-0.7-11.1-2.1
		c-3.3-1.4-6.1-3.3-8.5-5.8c-2.3-2.5-4.2-5.4-5.5-8.7c-1.3-3.3-2-7-2-10.8c0-3.9,0.7-7.5,2-10.8c1.3-3.3,3.1-6.3,5.5-8.7
		c2.3-2.5,5.2-4.4,8.5-5.8c3.3-1.4,7-2.1,11.1-2.1c3.8,0,7.5,0.9,11,2.6c3.6,1.8,6.5,4.3,8.7,7.8h0.2v-41.2h7.6v84.4h-7.6v-8.8
		H200.9z M162.1,686.4c0,2.9,0.4,5.6,1.3,8.2c0.9,2.6,2.2,4.8,3.9,6.7c1.7,1.9,3.7,3.4,6.2,4.5c2.5,1.1,5.2,1.6,8.4,1.6
		c2.9,0,5.6-0.5,8-1.6c2.5-1.1,4.6-2.5,6.4-4.4c1.8-1.9,3.2-4.1,4.2-6.6c1-2.6,1.5-5.3,1.5-8.3c0-3-0.5-5.7-1.5-8.3
		c-1-2.6-2.4-4.8-4.2-6.7s-3.9-3.4-6.4-4.5c-2.5-1.1-5.1-1.6-8-1.6c-3.1,0-5.9,0.6-8.4,1.7c-2.5,1.1-4.5,2.6-6.2,4.5
		c-1.7,1.9-3,4.1-3.9,6.7C162.6,680.8,162.1,683.5,162.1,686.4z"/>
	<path class="st1" d="M259.2,678.7c0-4.5-1.2-7.9-3.6-10.1c-2.4-2.2-5.8-3.3-10.4-3.3c-3.1,0-6,0.6-8.7,1.7s-4.9,2.6-6.8,4.5l-4.2-5
		c2.2-2.2,5-3.9,8.5-5.4c3.5-1.4,7.5-2.1,12-2.1c2.8,0,5.5,0.4,7.9,1.2c2.5,0.8,4.6,2,6.5,3.5c1.9,1.6,3.3,3.5,4.4,5.9
		c1,2.4,1.6,5.2,1.6,8.4v22.9c0,2,0.1,4.1,0.2,6.2c0.1,2.2,0.4,4,0.7,5.5h-6.8c-0.2-1.3-0.4-2.6-0.6-4.1c-0.1-1.5-0.2-2.9-0.2-4.4
		h-0.2c-2.4,3.5-5.1,6-8.1,7.5c-3,1.5-6.6,2.3-10.9,2.3c-2,0-4.1-0.3-6.2-0.8c-2.1-0.6-4.1-1.5-5.8-2.7c-1.8-1.3-3.2-2.9-4.4-4.9
		c-1.2-2-1.7-4.5-1.7-7.4c0-4,1-7.2,3.1-9.6c2-2.4,4.8-4.1,8.2-5.3c3.4-1.2,7.3-1.9,11.8-2.2c4.4-0.3,9-0.5,13.8-0.5V678.7z
		 M256.9,686.4c-3.1,0-6.3,0.1-9.4,0.4c-3.2,0.3-6,0.8-8.6,1.6c-2.6,0.8-4.7,1.9-6.3,3.4c-1.6,1.5-2.5,3.5-2.5,5.9
		c0,1.9,0.4,3.4,1.1,4.7c0.7,1.3,1.7,2.3,2.8,3.1c1.2,0.8,2.5,1.3,4,1.7c1.5,0.3,2.9,0.5,4.4,0.5c2.7,0,5.1-0.5,7.1-1.4
		c2.1-0.9,3.8-2.2,5.2-3.8c1.4-1.6,2.5-3.4,3.2-5.5c0.7-2.1,1.1-4.3,1.1-6.6v-3.9H256.9z"/>
	<path class="st1" d="M289.9,660.3c0.1,1.4,0.3,3,0.3,4.7c0.1,1.7,0.1,3.1,0.1,4.2h0.2c1.5-3.1,3.9-5.5,7.3-7.4s6.9-2.8,10.6-2.8
		c6.6,0,11.6,2,14.9,5.9c3.3,3.9,5,9.2,5,15.6v32h-7.6v-28.9c0-2.8-0.2-5.2-0.7-7.5s-1.2-4.1-2.3-5.7c-1.1-1.6-2.5-2.8-4.4-3.7
		c-1.8-0.9-4.1-1.3-6.9-1.3c-2,0-4,0.4-5.9,1.2c-1.9,0.8-3.6,2.1-5.1,3.7c-1.5,1.7-2.7,3.8-3.6,6.4c-0.9,2.6-1.3,5.6-1.3,9.1v26.8
		h-7.6v-40.7c0-1.4,0-3.2-0.1-5.5c-0.1-2.2-0.2-4.2-0.3-6H289.9z"/>
	<path class="st1" d="M351.8,660.3c0.1,1.4,0.3,3,0.3,4.7c0.1,1.7,0.1,3.1,0.1,4.2h0.2c1.5-3.1,3.9-5.5,7.3-7.4s6.9-2.8,10.6-2.8
		c6.6,0,11.6,2,14.9,5.9c3.3,3.9,5,9.2,5,15.6v32h-7.6v-28.9c0-2.8-0.2-5.2-0.7-7.5s-1.2-4.1-2.3-5.7c-1.1-1.6-2.5-2.8-4.4-3.7
		c-1.8-0.9-4.1-1.3-6.9-1.3c-2,0-4,0.4-5.9,1.2c-1.9,0.8-3.6,2.1-5.1,3.7c-1.5,1.7-2.7,3.8-3.6,6.4c-0.9,2.6-1.3,5.6-1.3,9.1v26.8
		H345v-40.7c0-1.4,0-3.2-0.1-5.5c-0.1-2.2-0.2-4.2-0.3-6H351.8z"/>
	<path class="st1" d="M455,684.9c0,0.5,0,1.1,0,1.7c0,0.6,0,1.2-0.1,1.9h-43.3c0.1,2.6,0.6,5.1,1.6,7.4c1,2.3,2.3,4.3,4,6
		c1.7,1.7,3.7,3.1,6,4.1c2.3,1,4.8,1.5,7.5,1.5c3.9,0,7.3-0.9,10.2-2.7c2.9-1.8,5-3.9,6.5-6.3l5.7,4.5c-3.1,3.9-6.6,6.8-10.3,8.5
		c-3.8,1.7-7.8,2.6-12.1,2.6c-3.9,0-7.5-0.7-10.8-2.1c-3.3-1.4-6.2-3.3-8.5-5.7c-2.4-2.5-4.3-5.4-5.6-8.7c-1.4-3.3-2.1-7-2.1-10.9
		c0-3.9,0.7-7.6,2-10.9s3.2-6.2,5.6-8.7c2.4-2.5,5.2-4.4,8.4-5.7c3.2-1.4,6.7-2.1,10.4-2.1c4.1,0,7.7,0.7,10.8,2.1
		c3.1,1.4,5.7,3.2,7.8,5.6c2.1,2.3,3.7,5.1,4.7,8.2C454.4,677.9,455,681.3,455,684.9z M447.3,682.4c-0.2-4.9-1.8-9-4.7-12.2
		c-2.9-3.2-7.1-4.9-12.6-4.9c-2.5,0-4.9,0.5-7,1.4c-2.2,0.9-4.1,2.2-5.7,3.8c-1.6,1.6-2.9,3.4-3.9,5.5c-1,2-1.5,4.2-1.7,6.4H447.3z"
		/>
	<path class="st1" d="M476.6,712.5h-7.6v-84.4h7.6V712.5z"/>
	<path class="st1" d="M522.4,672.7c-1.1-2.2-2.8-3.9-5.1-5.3c-2.3-1.4-4.9-2.1-7.8-2.1c-1.3,0-2.7,0.2-4,0.4
		c-1.3,0.3-2.5,0.8-3.6,1.5c-1,0.7-1.9,1.5-2.5,2.6c-0.6,1-0.9,2.3-0.9,3.7c0,2.5,1,4.3,3,5.6c2,1.3,5.2,2.4,9.5,3.3
		c6.2,1.3,10.7,3.1,13.7,5.5c2.9,2.4,4.4,5.7,4.4,9.8c0,3-0.6,5.5-1.7,7.5c-1.2,2-2.7,3.7-4.5,5c-1.9,1.3-4,2.2-6.3,2.8
		c-2.3,0.6-4.7,0.8-7.1,0.8c-3.9,0-7.8-0.8-11.5-2.5c-3.7-1.6-6.8-4.2-9.2-7.7l6-4.5c1.3,2.3,3.3,4.2,5.9,5.8
		c2.6,1.6,5.5,2.3,8.6,2.3c1.6,0,3.2-0.1,4.7-0.4c1.5-0.3,2.8-0.8,3.9-1.6c1.1-0.7,2-1.7,2.7-2.8c0.7-1.2,1-2.6,1-4.3
		c0-2.8-1.3-4.8-4-6.2c-2.6-1.4-6.5-2.7-11.4-3.9c-1.6-0.4-3.2-0.8-5-1.4c-1.7-0.6-3.4-1.4-4.9-2.5c-1.5-1.1-2.7-2.4-3.7-4.1
		c-1-1.6-1.5-3.7-1.5-6.1c0-2.7,0.5-5,1.6-6.9c1-1.9,2.4-3.5,4.2-4.7c1.7-1.2,3.7-2.1,6-2.7c2.2-0.6,4.5-0.9,6.9-0.9
		c3.6,0,7.2,0.8,10.6,2.5c3.4,1.6,6,3.9,7.7,6.9L522.4,672.7z"/>
	<path class="st1" d="M590.1,684.9c0,0.5,0,1.1,0,1.7c0,0.6,0,1.2-0.1,1.9h-43.3c0.1,2.6,0.6,5.1,1.6,7.4c1,2.3,2.3,4.3,4,6
		c1.7,1.7,3.7,3.1,6,4.1c2.3,1,4.8,1.5,7.5,1.5c3.9,0,7.3-0.9,10.2-2.7c2.9-1.8,5-3.9,6.5-6.3l5.7,4.5c-3.1,3.9-6.6,6.8-10.3,8.5
		c-3.8,1.7-7.8,2.6-12.1,2.6c-3.9,0-7.5-0.7-10.8-2.1c-3.3-1.4-6.2-3.3-8.5-5.7c-2.4-2.5-4.3-5.4-5.6-8.7c-1.4-3.3-2.1-7-2.1-10.9
		c0-3.9,0.7-7.6,2-10.9s3.2-6.2,5.6-8.7c2.4-2.5,5.2-4.4,8.4-5.7c3.2-1.4,6.7-2.1,10.4-2.1c4.1,0,7.7,0.7,10.8,2.1
		c3.1,1.4,5.7,3.2,7.8,5.6c2.1,2.3,3.7,5.1,4.7,8.2C589.6,677.9,590.1,681.3,590.1,684.9z M582.4,682.4c-0.2-4.9-1.8-9-4.7-12.2
		c-2.9-3.2-7.1-4.9-12.6-4.9c-2.5,0-4.9,0.5-7,1.4c-2.2,0.9-4.1,2.2-5.7,3.8c-1.6,1.6-2.9,3.4-3.9,5.5c-1,2-1.5,4.2-1.7,6.4H582.4z"
		/>
</g>
</svg>
