<?xml version="1.0" encoding="utf-8"?>
<!-- Generator: Adobe Illustrator 25.3.1, SVG Export Plug-In . SVG Version: 6.00 Build 0)  -->
<svg version="1.1" id="Layer_1" xmlns="http://www.w3.org/2000/svg" xmlns:xlink="http://www.w3.org/1999/xlink" x="0px" y="0px"
	 viewBox="0 0 600 735" style="enable-background:new 0 0 600 735;" xml:space="preserve">
<style type="text/css">
	.st0{fill:#231F20;}
	.st1{fill:#FFFFFF;}
</style>
<g>
	<g>
		<path class="st1" d="M176.7,446.1c-50.3,0-88.3-15.1-88.3-35.1h9c0,12.4,32.6,26.1,79.3,26.1s79.3-13.8,79.3-26.1h9
			C265,431,227.1,446.1,176.7,446.1z"/>
	</g>
	<g>
		<path class="st1" d="M176.7,399.8c-50.3,0-88.3-15.1-88.3-35.1h9c0,12.4,32.6,26.1,79.3,26.1s79.3-13.8,79.3-26.1h9
			C265,384.7,227.1,399.8,176.7,399.8z"/>
	</g>
	<g>
		<path class="st1" d="M176.7,353.6c-50.3,0-88.3-15.1-88.3-35.1h9c0,12.4,32.6,26.1,79.3,26.1s79.3-13.8,79.3-26.1h9
			C265,338.5,227.1,353.6,176.7,353.6z"/>
	</g>
	<g>
		<path class="st1" d="M176.7,307.4c-50.3,0-88.3-15.1-88.3-35.1c0-20,37.9-35.1,88.3-35.1s88.3,15.1,88.3,35.1
			C265,292.2,227.1,307.4,176.7,307.4z M176.7,246.1c-46.7,0-79.3,13.8-79.3,26.1c0,12.4,32.6,26.1,79.3,26.1s79.3-13.8,79.3-26.1
			C256,259.8,223.5,246.1,176.7,246.1z"/>
	</g>
	<g>
		<path class="st1" d="M176.7,492.3c-22.9,0-44.5-3.3-60.8-9.2c-17.7-6.5-27.5-15.7-27.5-25.9h9c0,12.4,32.6,26.1,79.3,26.1
			s79.3-13.8,79.3-26.1V270.3h9v186.9c0,10.2-9.8,19.4-27.5,25.9C221.2,489,199.6,492.3,176.7,492.3z"/>
	</g>
	<g>
		<rect x="88.5" y="272.2" class="st1" width="9" height="185"/>
	</g>
	<g>
		<path class="st1" d="M536.9,353.6H286.7c-2.5,0-4.5-2-4.5-4.5s2-4.5,4.5-4.5h241.2v-154h-294v32.5c0,2.5-2,4.5-4.5,4.5
			s-4.5-2-4.5-4.5v-41.5h312V353.6z"/>
	</g>
	<g>
		<path class="st1" d="M380.9,326c-22.5,0-43.6-5.9-59.6-16.5c-16.6-11-25.7-25.9-25.7-41.9s9.1-30.8,25.7-41.9
			c16-10.7,37.2-16.5,59.6-16.5s43.6,5.9,59.6,16.5c16.6,11,25.7,25.9,25.7,41.9c0,16-9.1,30.8-25.7,41.9
			C424.5,320.1,403.3,326,380.9,326z M380.9,218.2c-42.1,0-76.3,22.2-76.3,49.4c0,27.2,34.2,49.4,76.3,49.4
			c42.1,0,76.3-22.2,76.3-49.4C457.2,240.3,422.9,218.2,380.9,218.2z"/>
	</g>
</g>
<g>
	<path class="st1" d="M300,595.9c-79.1,0-153.4-30.8-209.3-86.7S4,378.9,4,299.9S34.8,146.5,90.7,90.6S220.9,3.9,300,3.9
		s153.4,30.8,209.3,86.7S596,220.8,596,299.9s-30.8,153.4-86.7,209.3S379.1,595.9,300,595.9z M300,12.9
		c-76.7,0-148.7,29.9-202.9,84.1S13,223.2,13,299.9c0,76.7,29.9,148.7,84.1,202.9s126.3,84.1,202.9,84.1
		c76.7,0,148.7-29.9,202.9-84.1S587,376.5,587,299.9c0-76.7-29.9-148.7-84.1-202.9S376.7,12.9,300,12.9z"/>
</g>
<g>
	<path class="st1" d="M88,713h-8v-79h8V713z"/>
	<path class="st1" d="M113.1,660.7c0.1,1.4,0.3,3,0.3,4.7c0.1,1.7,0.1,3.1,0.1,4.2h0.2c1.5-3.1,3.9-5.5,7.3-7.4s6.9-2.8,10.6-2.8
		c6.6,0,11.6,2,14.9,5.9c3.3,3.9,5,9.2,5,15.6v32H144v-28.9c0-2.8-0.2-5.2-0.7-7.5s-1.2-4.1-2.3-5.7c-1.1-1.6-2.5-2.8-4.4-3.7
		c-1.8-0.9-4.1-1.3-6.9-1.3c-2,0-4,0.4-5.9,1.2c-1.9,0.8-3.6,2.1-5.1,3.7c-1.5,1.7-2.7,3.8-3.6,6.4c-0.9,2.6-1.3,5.6-1.3,9.1V713
		h-7.6v-40.7c0-1.4,0-3.2-0.1-5.5c-0.1-2.2-0.2-4.2-0.3-6H113.1z"/>
	<path class="st1" d="M211.8,704.2c-2.2,3.3-5.1,5.9-8.7,7.6c-3.6,1.7-7.3,2.6-11,2.6c-4.1,0-7.8-0.7-11.1-2.1
		c-3.3-1.4-6.1-3.3-8.5-5.8c-2.3-2.5-4.2-5.4-5.5-8.7c-1.3-3.3-2-7-2-10.8c0-3.9,0.7-7.5,2-10.8c1.3-3.3,3.1-6.3,5.5-8.7
		c2.3-2.5,5.2-4.4,8.5-5.8c3.3-1.4,7-2.1,11.1-2.1c3.8,0,7.5,0.9,11,2.6c3.6,1.8,6.5,4.3,8.7,7.8h0.2v-41.2h7.6V713H212v-8.8H211.8z
		 M173,686.9c0,2.9,0.4,5.6,1.3,8.2c0.9,2.6,2.2,4.8,3.9,6.7c1.7,1.9,3.7,3.4,6.2,4.5c2.5,1.1,5.2,1.6,8.4,1.6c2.9,0,5.6-0.5,8-1.6
		c2.5-1.1,4.6-2.5,6.4-4.4c1.8-1.9,3.2-4.1,4.2-6.6c1-2.6,1.5-5.3,1.5-8.3c0-3-0.5-5.7-1.5-8.3c-1-2.6-2.4-4.8-4.2-6.7
		s-3.9-3.4-6.4-4.5c-2.5-1.1-5.1-1.6-8-1.6c-3.1,0-5.9,0.6-8.4,1.7c-2.5,1.1-4.5,2.6-6.2,4.5c-1.7,1.9-3,4.1-3.9,6.7
		C173.5,681.2,173,684,173,686.9z"/>
	<path class="st1" d="M244.5,684.3h0.3l24.1-23.6h10.9l-26.3,23.9l29,28.4h-11.2l-26.6-27.5h-0.3V713h-7.6v-84.4h7.6V684.3z"/>
	<path class="st1" d="M340.3,686.9c0,3.9-0.7,7.6-2.1,10.9c-1.4,3.3-3.3,6.2-5.7,8.7c-2.5,2.5-5.4,4.4-8.8,5.7
		c-3.4,1.4-7.2,2.1-11.3,2.1c-4,0-7.7-0.7-11.2-2.1c-3.4-1.4-6.4-3.3-8.8-5.7c-2.5-2.5-4.4-5.4-5.7-8.7c-1.4-3.3-2.1-7-2.1-10.9
		c0-3.9,0.7-7.6,2.1-10.9c1.4-3.3,3.3-6.2,5.7-8.7c2.5-2.5,5.4-4.4,8.8-5.7c3.4-1.4,7.1-2.1,11.2-2.1c4.1,0,7.8,0.7,11.3,2.1
		c3.4,1.4,6.4,3.3,8.8,5.7c2.5,2.5,4.4,5.4,5.7,8.7C339.6,679.3,340.3,682.9,340.3,686.9z M332.3,686.9c0-2.9-0.5-5.6-1.4-8.2
		c-0.9-2.6-2.3-4.8-4-6.7c-1.7-1.9-3.8-3.4-6.2-4.5c-2.5-1.1-5.2-1.7-8.3-1.7c-3.1,0-5.8,0.6-8.2,1.7c-2.4,1.1-4.5,2.6-6.2,4.5
		c-1.7,1.9-3,4.1-4,6.7c-0.9,2.6-1.4,5.3-1.4,8.2c0,2.9,0.5,5.6,1.4,8.2c0.9,2.6,2.2,4.8,4,6.7c1.7,1.9,3.8,3.4,6.2,4.5
		c2.4,1.1,5.2,1.6,8.2,1.6c3,0,5.8-0.5,8.3-1.6c2.5-1.1,4.5-2.6,6.2-4.5c1.7-1.9,3-4.1,4-6.7C331.8,692.5,332.3,689.8,332.3,686.9z"
		/>
	<path class="st1" d="M368.3,662.2c3.1-1.9,6.5-2.8,10.3-2.8c1.4,0,2.9,0.2,4.4,0.4c1.5,0.3,3,0.9,4.5,1.7c1.5,0.9,2.8,2,4,3.4
		c1.2,1.4,2.3,3.2,3.2,5.5c1.8-3.6,4.2-6.3,7.3-8.2c3.1-1.9,6.8-2.8,11-2.8c6.6,0,11.6,2,14.9,5.9c3.3,3.9,5,9.2,5,15.6v32h-7.6
		v-28.9c0-5.5-1-9.9-3.1-13.3c-2-3.3-5.5-5-10.4-5c-2.8,0-5.1,0.6-7,1.7s-3.4,2.6-4.6,4.4c-1.2,1.8-2,3.9-2.5,6.2
		c-0.5,2.3-0.8,4.7-0.8,7.1V713h-7.6v-30.5c0-2.5-0.2-4.8-0.6-6.9c-0.4-2.1-1-3.9-2-5.3c-0.9-1.5-2.2-2.6-3.9-3.3
		c-1.6-0.8-3.7-1.2-6.3-1.2c-1.8,0-3.6,0.4-5.4,1.2c-1.8,0.8-3.5,2.1-4.9,3.7c-1.5,1.7-2.6,3.8-3.5,6.4c-0.9,2.6-1.3,5.6-1.3,9.1
		V713h-7.6v-40.7c0-1.4,0-3.2-0.1-5.5c-0.1-2.2-0.2-4.2-0.3-6h7.3c0.1,1.4,0.3,3,0.3,4.7c0.1,1.7,0.1,3.1,0.1,4.2h0.2
		C362.9,666.6,365.2,664.1,368.3,662.2z"/>
	<path class="st1" d="M478.1,673.1c-1.1-2.2-2.8-3.9-5.1-5.3c-2.3-1.4-4.9-2.1-7.8-2.1c-1.3,0-2.7,0.2-4,0.4
		c-1.3,0.3-2.5,0.8-3.6,1.5c-1,0.7-1.9,1.5-2.5,2.6c-0.6,1-0.9,2.3-0.9,3.7c0,2.5,1,4.3,3,5.6c2,1.3,5.2,2.4,9.5,3.3
		c6.2,1.3,10.7,3.1,13.7,5.5c2.9,2.4,4.4,5.7,4.4,9.8c0,3-0.6,5.5-1.7,7.5c-1.2,2-2.7,3.7-4.5,5c-1.9,1.3-4,2.2-6.3,2.8
		c-2.3,0.6-4.7,0.8-7.1,0.8c-3.9,0-7.8-0.8-11.5-2.5c-3.7-1.6-6.8-4.2-9.2-7.7l6-4.5c1.3,2.3,3.3,4.2,5.9,5.8
		c2.6,1.6,5.5,2.3,8.6,2.3c1.6,0,3.2-0.1,4.7-0.4c1.5-0.3,2.8-0.8,3.9-1.6c1.1-0.7,2-1.7,2.7-2.8c0.7-1.2,1-2.6,1-4.3
		c0-2.8-1.3-4.8-4-6.2c-2.6-1.4-6.5-2.7-11.4-3.9c-1.6-0.4-3.2-0.8-5-1.4c-1.7-0.6-3.4-1.4-4.9-2.5c-1.5-1.1-2.7-2.4-3.7-4.1
		c-1-1.6-1.5-3.7-1.5-6.1c0-2.7,0.5-5,1.6-6.9c1-1.9,2.4-3.5,4.2-4.7c1.7-1.2,3.7-2.1,6-2.7c2.2-0.6,4.5-0.9,6.9-0.9
		c3.6,0,7.2,0.8,10.6,2.5c3.4,1.6,6,3.9,7.7,6.9L478.1,673.1z"/>
	<path class="st1" d="M524.8,667.1h-14.7v30.5c0,1.9,0.2,3.5,0.6,4.8c0.4,1.3,0.9,2.3,1.6,3c0.7,0.7,1.5,1.2,2.5,1.5
		c1,0.3,2,0.4,3.1,0.4c1,0,2.1-0.1,3.3-0.4c1.2-0.3,2.2-0.7,3.3-1.2l0.3,6.6c-1.3,0.5-2.7,0.9-4.2,1.2c-1.5,0.3-3,0.4-4.7,0.4
		c-1.4,0-2.9-0.2-4.5-0.6c-1.6-0.4-3-1.1-4.4-2.1c-1.3-1-2.4-2.5-3.3-4.2c-0.9-1.8-1.3-4.1-1.3-7v-32.6h-10.8v-6.4h10.8V646h7.6
		v14.7h14.7V667.1z"/>
</g>
</svg>
