<?xml version="1.0" encoding="utf-8"?>
<!-- Generator: Adobe Illustrator 25.1.0, SVG Export Plug-In . SVG Version: 6.00 Build 0)  -->
<svg version="1.1" id="Layer_1" xmlns="http://www.w3.org/2000/svg" xmlns:xlink="http://www.w3.org/1999/xlink" x="0px" y="0px"
	 viewBox="0 0 50 37.7" style="enable-background:new 0 0 50 37.7;" xml:space="preserve">
<style type="text/css">
	.st0{fill:none;stroke:#FFFFFF;stroke-width:2.2;stroke-linecap:round;stroke-miterlimit:10;}
	.st1{fill:none;stroke:#FFFFFF;stroke-width:2.2;stroke-miterlimit:10;}
	.st2{fill:#FFFFFF;}
	.st3{fill:none;stroke:#F2920C;stroke-width:2.2;stroke-linecap:round;stroke-miterlimit:10;}
	.st4{fill:none;stroke:#F2920C;stroke-width:2.2;stroke-miterlimit:10;}
	.st5{fill:#F2920C;}
	.st6{fill:none;stroke:#333333;stroke-width:2.2;stroke-linecap:round;stroke-miterlimit:10;}
	.st7{fill:none;stroke:#333333;stroke-width:2.2;stroke-miterlimit:10;}
	.st8{fill:#333333;}
</style>
<path class="st6" d="M19,17.6c-0.6,1.5-4.3,2.7-8.6,2.7c-4.5,0-8.2-1.2-8.7-2.8"/>
<ellipse class="st7" cx="10.3" cy="11.6" rx="8.7" ry="3.2"/>
<path class="st7" d="M19,11.7l0,21c0,1.9-3.9,3.5-8.7,3.5s-8.7-1.6-8.7-3.5l0-21.1"/>
<polyline class="st6" points="15.6,5.7 15.6,1.8 48.2,1.8 48.2,19.3 22.3,19.3 "/>
<ellipse class="st7" cx="31.9" cy="10.5" rx="8.4" ry="5.6"/>
<path class="st6" d="M19,22.9c-0.6,1.5-4.3,2.7-8.6,2.7c-4.5,0-8.2-1.2-8.7-2.8"/>
<path class="st6" d="M19,28.3c-0.6,1.5-4.3,2.7-8.6,2.7c-4.5,0-8.2-1.2-8.7-2.8"/>
</svg>
